<svg width="28" height="26" viewBox="0 0 28 26" fill="none" xmlns="http://www.w3.org/2000/svg">
<foreignObject x="0" y="0" width="28" height="26"><div xmlns="http://www.w3.org/1999/xhtml" style="backdrop-filter:blur(1px);clip-path:url(#bgblur_0_192_1127_clip_path);height:100%;width:100%"></div></foreignObject><g filter="url(#filter0_di_192_1127)" data-figma-bg-blur-radius="2">
<path d="M14 5.11745L15.1001 4.70461C17.6036 3.76513 20.3964 3.76513 22.8999 4.70461C23.5643 4.95395 24 5.55769 24 6.22907V20.0797C24 21.0016 23.0075 21.632 22.0951 21.2896C20.1082 20.544 17.8918 20.544 15.9049 21.2896L14.0137 21.9993C14.0071 22.0018 14 21.9972 14 21.9906V5.11745Z" fill="url(#paint0_linear_192_1127)" shape-rendering="crispEdges"/>
<path d="M14 5.11745L12.8999 4.70461C10.3964 3.76513 7.60362 3.76513 5.10014 4.70461C4.43569 4.95395 4 5.55769 4 6.22907V20.0797C4 21.0016 4.99247 21.632 5.90485 21.2896C7.89175 20.544 10.1082 20.544 12.0951 21.2896L13.9863 21.9993C13.9929 22.0018 14 21.9972 14 21.9906V5.11745Z" fill="url(#paint1_linear_192_1127)" shape-rendering="crispEdges"/>
<path d="M5.14453 4.82129C7.61939 3.89271 10.3806 3.89271 12.8555 4.82129L13.875 5.20312V21.8232L12.1387 21.1729C10.1236 20.4167 7.87639 20.4167 5.86133 21.1729C5.01968 21.4887 4.12525 20.903 4.125 20.0801V6.22949C4.125 5.61405 4.52516 5.05372 5.14453 4.82129ZM15.1445 4.82129C17.6194 3.89271 20.3806 3.89271 22.8555 4.82129C23.4748 5.05372 23.875 5.61405 23.875 6.22949V20.0801C23.8748 20.903 22.9803 21.4887 22.1387 21.1729C20.1236 20.4167 17.8764 20.4167 15.8613 21.1729L14.125 21.8232V5.20312L15.1445 4.82129Z" stroke="url(#paint2_linear_192_1127)" stroke-opacity="0.7" stroke-width="0.25" shape-rendering="crispEdges"/>
</g>
<defs>
<filter id="filter0_di_192_1127" x="0" y="0" width="28" height="26" filterUnits="userSpaceOnUse" color-interpolation-filters="sRGB">
<feFlood flood-opacity="0" result="BackgroundImageFix"/>
<feColorMatrix in="SourceAlpha" type="matrix" values="0 0 0 0 0 0 0 0 0 0 0 0 0 0 0 0 0 0 127 0" result="hardAlpha"/>
<feOffset/>
<feGaussianBlur stdDeviation="2"/>
<feComposite in2="hardAlpha" operator="out"/>
<feColorMatrix type="matrix" values="0 0 0 0 0.231373 0 0 0 0 0.407843 0 0 0 0 1 0 0 0 0.1 0"/>
<feBlend mode="normal" in2="BackgroundImageFix" result="effect1_dropShadow_192_1127"/>
<feBlend mode="normal" in="SourceGraphic" in2="effect1_dropShadow_192_1127" result="shape"/>
<feColorMatrix in="SourceAlpha" type="matrix" values="0 0 0 0 0 0 0 0 0 0 0 0 0 0 0 0 0 0 127 0" result="hardAlpha"/>
<feOffset/>
<feGaussianBlur stdDeviation="1.5"/>
<feComposite in2="hardAlpha" operator="arithmetic" k2="-1" k3="1"/>
<feColorMatrix type="matrix" values="0 0 0 0 0.231373 0 0 0 0 0.407843 0 0 0 0 1 0 0 0 0.38 0"/>
<feBlend mode="normal" in2="shape" result="effect2_innerShadow_192_1127"/>
</filter>
<clipPath id="bgblur_0_192_1127_clip_path" transform="translate(0 0)"><path d="M14 5.11745L15.1001 4.70461C17.6036 3.76513 20.3964 3.76513 22.8999 4.70461C23.5643 4.95395 24 5.55769 24 6.22907V20.0797C24 21.0016 23.0075 21.632 22.0951 21.2896C20.1082 20.544 17.8918 20.544 15.9049 21.2896L14.0137 21.9993C14.0071 22.0018 14 21.9972 14 21.9906V5.11745Z"/>
<path d="M14 5.11745L12.8999 4.70461C10.3964 3.76513 7.60362 3.76513 5.10014 4.70461C4.43569 4.95395 4 5.55769 4 6.22907V20.0797C4 21.0016 4.99247 21.632 5.90485 21.2896C7.89175 20.544 10.1082 20.544 12.0951 21.2896L13.9863 21.9993C13.9929 22.0018 14 21.9972 14 21.9906V5.11745Z"/>
</clipPath><linearGradient id="paint0_linear_192_1127" x1="-2.5" y1="-3.2" x2="31.0168" y2="30.0149" gradientUnits="userSpaceOnUse">
<stop stop-color="#344EA6" stop-opacity="0.26"/>
<stop offset="0.505208" stop-color="#587EFF" stop-opacity="0.12"/>
<stop offset="1" stop-color="#829EFF" stop-opacity="0.04"/>
</linearGradient>
<linearGradient id="paint1_linear_192_1127" x1="-2.5" y1="-3.2" x2="31.0168" y2="30.0149" gradientUnits="userSpaceOnUse">
<stop stop-color="#344EA6" stop-opacity="0.26"/>
<stop offset="0.505208" stop-color="#587EFF" stop-opacity="0.12"/>
<stop offset="1" stop-color="#829EFF" stop-opacity="0.04"/>
</linearGradient>
<linearGradient id="paint2_linear_192_1127" x1="4.5" y1="6.7" x2="20.4185" y2="21.8605" gradientUnits="userSpaceOnUse">
<stop stop-color="white" stop-opacity="0.15"/>
<stop offset="1" stop-color="white" stop-opacity="0.44"/>
</linearGradient>
</defs>
</svg>
