<svg width="168" height="156" viewBox="0 0 168 156" fill="none" xmlns="http://www.w3.org/2000/svg">
<path d="M84 62.001L142.671 37.5548C143.163 37.3497 143.163 36.6523 142.671 36.4471L114 24.501L88.6154 13.9241C85.6615 12.6933 82.3385 12.6933 79.3846 13.9241L25.3292 36.4471C24.8369 36.6523 24.8369 37.3497 25.3292 37.5548L54 49.501L84 62.001Z" fill="#3B68FF"/>
<foreignObject x="60" y="13.3003" width="108" height="142.701"><div xmlns="http://www.w3.org/1999/xhtml" style="backdrop-filter:blur(6px);clip-path:url(#bgblur_0_20_562_clip_path);height:100%;width:100%"></div></foreignObject><g filter="url(#filter0_di_20_562)" data-figma-bg-blur-radius="12">
<path d="M84 132.001V62.001L143.169 37.3471C143.564 37.1825 144 37.4728 144 37.901V103.001C144 105.423 142.544 107.608 140.308 108.539L84 132.001Z" fill="url(#paint0_linear_20_562)" shape-rendering="crispEdges"/>
<path d="M143.361 37.8086C143.427 37.7811 143.5 37.83 143.5 37.9014V103.001C143.5 105.221 142.165 107.224 140.115 108.078L84.5 131.25V62.334L143.361 37.8086Z" stroke="url(#paint1_linear_20_562)" stroke-opacity="0.7" stroke-linejoin="round" shape-rendering="crispEdges"/>
</g>
<foreignObject x="0" y="13.2993" width="108" height="142.701"><div xmlns="http://www.w3.org/1999/xhtml" style="backdrop-filter:blur(6px);clip-path:url(#bgblur_1_20_562_clip_path);height:100%;width:100%"></div></foreignObject><g filter="url(#filter1_di_20_562)" data-figma-bg-blur-radius="12">
<path d="M24 37.9V103C24 105.422 25.4564 107.607 27.6923 108.538L84 132V62L24.8308 37.3462C24.4356 37.1815 24 37.4719 24 37.9Z" fill="url(#paint2_linear_20_562)" shape-rendering="crispEdges"/>
<path d="M24.6387 37.8076L83.5 62.333V131.249L27.8848 108.077C25.8352 107.223 24.5 105.22 24.5 103V37.9004C24.5 37.829 24.5728 37.7802 24.6387 37.8076Z" stroke="url(#paint3_linear_20_562)" stroke-opacity="0.7" stroke-linejoin="round" shape-rendering="crispEdges"/>
</g>
<defs>
<filter id="filter0_di_20_562" x="60" y="13.3003" width="108" height="142.701" filterUnits="userSpaceOnUse" color-interpolation-filters="sRGB">
<feFlood flood-opacity="0" result="BackgroundImageFix"/>
<feColorMatrix in="SourceAlpha" type="matrix" values="0 0 0 0 0 0 0 0 0 0 0 0 0 0 0 0 0 0 127 0" result="hardAlpha"/>
<feOffset/>
<feGaussianBlur stdDeviation="12"/>
<feComposite in2="hardAlpha" operator="out"/>
<feColorMatrix type="matrix" values="0 0 0 0 0.231373 0 0 0 0 0.407843 0 0 0 0 1 0 0 0 0.1 0"/>
<feBlend mode="normal" in2="BackgroundImageFix" result="effect1_dropShadow_20_562"/>
<feBlend mode="normal" in="SourceGraphic" in2="effect1_dropShadow_20_562" result="shape"/>
<feColorMatrix in="SourceAlpha" type="matrix" values="0 0 0 0 0 0 0 0 0 0 0 0 0 0 0 0 0 0 127 0" result="hardAlpha"/>
<feOffset/>
<feGaussianBlur stdDeviation="9"/>
<feComposite in2="hardAlpha" operator="arithmetic" k2="-1" k3="1"/>
<feColorMatrix type="matrix" values="0 0 0 0 0.231373 0 0 0 0 0.407843 0 0 0 0 1 0 0 0 0.38 0"/>
<feBlend mode="normal" in2="shape" result="effect2_innerShadow_20_562"/>
</filter>
<clipPath id="bgblur_0_20_562_clip_path" transform="translate(-60 -13.3003)"><path d="M84 132.001V62.001L143.169 37.3471C143.564 37.1825 144 37.4728 144 37.901V103.001C144 105.423 142.544 107.608 140.308 108.539L84 132.001Z"/>
</clipPath><filter id="filter1_di_20_562" x="0" y="13.2993" width="108" height="142.701" filterUnits="userSpaceOnUse" color-interpolation-filters="sRGB">
<feFlood flood-opacity="0" result="BackgroundImageFix"/>
<feColorMatrix in="SourceAlpha" type="matrix" values="0 0 0 0 0 0 0 0 0 0 0 0 0 0 0 0 0 0 127 0" result="hardAlpha"/>
<feOffset/>
<feGaussianBlur stdDeviation="12"/>
<feComposite in2="hardAlpha" operator="out"/>
<feColorMatrix type="matrix" values="0 0 0 0 0.231373 0 0 0 0 0.407843 0 0 0 0 1 0 0 0 0.1 0"/>
<feBlend mode="normal" in2="BackgroundImageFix" result="effect1_dropShadow_20_562"/>
<feBlend mode="normal" in="SourceGraphic" in2="effect1_dropShadow_20_562" result="shape"/>
<feColorMatrix in="SourceAlpha" type="matrix" values="0 0 0 0 0 0 0 0 0 0 0 0 0 0 0 0 0 0 127 0" result="hardAlpha"/>
<feOffset/>
<feGaussianBlur stdDeviation="9"/>
<feComposite in2="hardAlpha" operator="arithmetic" k2="-1" k3="1"/>
<feColorMatrix type="matrix" values="0 0 0 0 0.231373 0 0 0 0 0.407843 0 0 0 0 1 0 0 0 0.38 0"/>
<feBlend mode="normal" in2="shape" result="effect2_innerShadow_20_562"/>
</filter>
<clipPath id="bgblur_1_20_562_clip_path" transform="translate(0 -13.2993)"><path d="M24 37.9V103C24 105.422 25.4564 107.607 27.6923 108.538L84 132V62L24.8308 37.3462C24.4356 37.1815 24 37.4719 24 37.9Z"/>
</clipPath><linearGradient id="paint0_linear_20_562" x1="64.5" y1="-0.999029" x2="215.791" y2="84.2235" gradientUnits="userSpaceOnUse">
<stop stop-color="#344EA6" stop-opacity="0.26"/>
<stop offset="0.505208" stop-color="#587EFF" stop-opacity="0.12"/>
<stop offset="1" stop-color="#829EFF" stop-opacity="0.04"/>
</linearGradient>
<linearGradient id="paint1_linear_20_562" x1="85.5" y1="51.251" x2="155.931" y2="89.3789" gradientUnits="userSpaceOnUse">
<stop stop-color="white" stop-opacity="0.15"/>
<stop offset="1" stop-color="white" stop-opacity="0.44"/>
</linearGradient>
<linearGradient id="paint2_linear_20_562" x1="4.5" y1="-1.00001" x2="155.791" y2="84.2225" gradientUnits="userSpaceOnUse">
<stop stop-color="#344EA6" stop-opacity="0.26"/>
<stop offset="0.505208" stop-color="#587EFF" stop-opacity="0.12"/>
<stop offset="1" stop-color="#829EFF" stop-opacity="0.04"/>
</linearGradient>
<linearGradient id="paint3_linear_20_562" x1="25.5" y1="51.25" x2="95.9307" y2="89.3779" gradientUnits="userSpaceOnUse">
<stop stop-color="white" stop-opacity="0.15"/>
<stop offset="1" stop-color="white" stop-opacity="0.44"/>
</linearGradient>
</defs>
</svg>
