<svg width="27" height="27" viewBox="0 0 27 27" fill="none" xmlns="http://www.w3.org/2000/svg">
<rect x="14.75" y="4.75" width="7" height="7" rx="2.5" fill="#3B68FF" stroke="#3B68FF" stroke-width="1.5"/>
<foreignObject x="10" y="10" width="16.5" height="16.5"><div xmlns="http://www.w3.org/1999/xhtml" style="backdrop-filter:blur(1px);clip-path:url(#bgblur_0_192_1177_clip_path);height:100%;width:100%"></div></foreignObject><g filter="url(#filter0_di_192_1177)" data-figma-bg-blur-radius="2">
<mask id="path-2-inside-1_192_1177" fill="white">
<path fill-rule="evenodd" clip-rule="evenodd" d="M17.25 14C15.4551 14 14 15.4551 14 17.25V19.25C14 21.0449 15.4551 22.5 17.25 22.5H19.25C21.0449 22.5 22.5 21.0449 22.5 19.25V17.25C22.5 15.4551 21.0449 14 19.25 14H17.25Z"/>
</mask>
<path fill-rule="evenodd" clip-rule="evenodd" d="M17.25 14C15.4551 14 14 15.4551 14 17.25V19.25C14 21.0449 15.4551 22.5 17.25 22.5H19.25C21.0449 22.5 22.5 21.0449 22.5 19.25V17.25C22.5 15.4551 21.0449 14 19.25 14H17.25Z" fill="url(#paint0_linear_192_1177)" shape-rendering="crispEdges"/>
<path d="M14.25 17.25C14.25 15.5931 15.5931 14.25 17.25 14.25V13.75C15.317 13.75 13.75 15.317 13.75 17.25H14.25ZM14.25 19.25V17.25H13.75V19.25H14.25ZM17.25 22.25C15.5931 22.25 14.25 20.9069 14.25 19.25H13.75C13.75 21.183 15.317 22.75 17.25 22.75V22.25ZM19.25 22.25H17.25V22.75H19.25V22.25ZM22.25 19.25C22.25 20.9069 20.9069 22.25 19.25 22.25V22.75C21.183 22.75 22.75 21.183 22.75 19.25H22.25ZM22.25 17.25V19.25H22.75V17.25H22.25ZM19.25 14.25C20.9069 14.25 22.25 15.5931 22.25 17.25H22.75C22.75 15.317 21.183 13.75 19.25 13.75V14.25ZM17.25 14.25H19.25V13.75H17.25V14.25Z" fill="url(#paint1_linear_192_1177)" fill-opacity="0.7" mask="url(#path-2-inside-1_192_1177)"/>
</g>
<foreignObject x="0" y="10" width="16.5" height="16.5"><div xmlns="http://www.w3.org/1999/xhtml" style="backdrop-filter:blur(1px);clip-path:url(#bgblur_1_192_1177_clip_path);height:100%;width:100%"></div></foreignObject><g filter="url(#filter1_di_192_1177)" data-figma-bg-blur-radius="2">
<mask id="path-4-inside-2_192_1177" fill="white">
<path fill-rule="evenodd" clip-rule="evenodd" d="M7.25 14C5.45507 14 4 15.4551 4 17.25V19.25C4 21.0449 5.45507 22.5 7.25 22.5H9.25C11.0449 22.5 12.5 21.0449 12.5 19.25V17.25C12.5 15.4551 11.0449 14 9.25 14H7.25Z"/>
</mask>
<path fill-rule="evenodd" clip-rule="evenodd" d="M7.25 14C5.45507 14 4 15.4551 4 17.25V19.25C4 21.0449 5.45507 22.5 7.25 22.5H9.25C11.0449 22.5 12.5 21.0449 12.5 19.25V17.25C12.5 15.4551 11.0449 14 9.25 14H7.25Z" fill="url(#paint2_linear_192_1177)" shape-rendering="crispEdges"/>
<path d="M4.25 17.25C4.25 15.5931 5.59315 14.25 7.25 14.25V13.75C5.317 13.75 3.75 15.317 3.75 17.25H4.25ZM4.25 19.25V17.25H3.75V19.25H4.25ZM7.25 22.25C5.59315 22.25 4.25 20.9069 4.25 19.25H3.75C3.75 21.183 5.317 22.75 7.25 22.75V22.25ZM9.25 22.25H7.25V22.75H9.25V22.25ZM12.25 19.25C12.25 20.9069 10.9069 22.25 9.25 22.25V22.75C11.183 22.75 12.75 21.183 12.75 19.25H12.25ZM12.25 17.25V19.25H12.75V17.25H12.25ZM9.25 14.25C10.9069 14.25 12.25 15.5931 12.25 17.25H12.75C12.75 15.317 11.183 13.75 9.25 13.75V14.25ZM7.25 14.25H9.25V13.75H7.25V14.25Z" fill="url(#paint3_linear_192_1177)" fill-opacity="0.7" mask="url(#path-4-inside-2_192_1177)"/>
</g>
<foreignObject x="0" y="0" width="16.5" height="16.5"><div xmlns="http://www.w3.org/1999/xhtml" style="backdrop-filter:blur(1px);clip-path:url(#bgblur_2_192_1177_clip_path);height:100%;width:100%"></div></foreignObject><g filter="url(#filter2_di_192_1177)" data-figma-bg-blur-radius="2">
<mask id="path-6-inside-3_192_1177" fill="white">
<path fill-rule="evenodd" clip-rule="evenodd" d="M7.25 4C5.45507 4 4 5.45507 4 7.25V9.25C4 11.0449 5.45507 12.5 7.25 12.5H9.25C11.0449 12.5 12.5 11.0449 12.5 9.25V7.25C12.5 5.45507 11.0449 4 9.25 4H7.25Z"/>
</mask>
<path fill-rule="evenodd" clip-rule="evenodd" d="M7.25 4C5.45507 4 4 5.45507 4 7.25V9.25C4 11.0449 5.45507 12.5 7.25 12.5H9.25C11.0449 12.5 12.5 11.0449 12.5 9.25V7.25C12.5 5.45507 11.0449 4 9.25 4H7.25Z" fill="url(#paint4_linear_192_1177)" shape-rendering="crispEdges"/>
<path d="M4.25 7.25C4.25 5.59315 5.59315 4.25 7.25 4.25V3.75C5.317 3.75 3.75 5.317 3.75 7.25H4.25ZM4.25 9.25V7.25H3.75V9.25H4.25ZM7.25 12.25C5.59315 12.25 4.25 10.9069 4.25 9.25H3.75C3.75 11.183 5.317 12.75 7.25 12.75V12.25ZM9.25 12.25H7.25V12.75H9.25V12.25ZM12.25 9.25C12.25 10.9069 10.9069 12.25 9.25 12.25V12.75C11.183 12.75 12.75 11.183 12.75 9.25H12.25ZM12.25 7.25V9.25H12.75V7.25H12.25ZM9.25 4.25C10.9069 4.25 12.25 5.59315 12.25 7.25H12.75C12.75 5.317 11.183 3.75 9.25 3.75V4.25ZM7.25 4.25H9.25V3.75H7.25V4.25Z" fill="url(#paint5_linear_192_1177)" fill-opacity="0.7" mask="url(#path-6-inside-3_192_1177)"/>
</g>
<defs>
<filter id="filter0_di_192_1177" x="10" y="10" width="16.5" height="16.5" filterUnits="userSpaceOnUse" color-interpolation-filters="sRGB">
<feFlood flood-opacity="0" result="BackgroundImageFix"/>
<feColorMatrix in="SourceAlpha" type="matrix" values="0 0 0 0 0 0 0 0 0 0 0 0 0 0 0 0 0 0 127 0" result="hardAlpha"/>
<feOffset/>
<feGaussianBlur stdDeviation="2"/>
<feComposite in2="hardAlpha" operator="out"/>
<feColorMatrix type="matrix" values="0 0 0 0 0.231373 0 0 0 0 0.407843 0 0 0 0 1 0 0 0 0.1 0"/>
<feBlend mode="normal" in2="BackgroundImageFix" result="effect1_dropShadow_192_1177"/>
<feBlend mode="normal" in="SourceGraphic" in2="effect1_dropShadow_192_1177" result="shape"/>
<feColorMatrix in="SourceAlpha" type="matrix" values="0 0 0 0 0 0 0 0 0 0 0 0 0 0 0 0 0 0 127 0" result="hardAlpha"/>
<feOffset/>
<feGaussianBlur stdDeviation="1.5"/>
<feComposite in2="hardAlpha" operator="arithmetic" k2="-1" k3="1"/>
<feColorMatrix type="matrix" values="0 0 0 0 0.231373 0 0 0 0 0.407843 0 0 0 0 1 0 0 0 0.38 0"/>
<feBlend mode="normal" in2="shape" result="effect2_innerShadow_192_1177"/>
</filter>
<clipPath id="bgblur_0_192_1177_clip_path" transform="translate(-10 -10)"><path fill-rule="evenodd" clip-rule="evenodd" d="M17.25 14C15.4551 14 14 15.4551 14 17.25V19.25C14 21.0449 15.4551 22.5 17.25 22.5H19.25C21.0449 22.5 22.5 21.0449 22.5 19.25V17.25C22.5 15.4551 21.0449 14 19.25 14H17.25Z"/>
</clipPath><filter id="filter1_di_192_1177" x="0" y="10" width="16.5" height="16.5" filterUnits="userSpaceOnUse" color-interpolation-filters="sRGB">
<feFlood flood-opacity="0" result="BackgroundImageFix"/>
<feColorMatrix in="SourceAlpha" type="matrix" values="0 0 0 0 0 0 0 0 0 0 0 0 0 0 0 0 0 0 127 0" result="hardAlpha"/>
<feOffset/>
<feGaussianBlur stdDeviation="2"/>
<feComposite in2="hardAlpha" operator="out"/>
<feColorMatrix type="matrix" values="0 0 0 0 0.231373 0 0 0 0 0.407843 0 0 0 0 1 0 0 0 0.1 0"/>
<feBlend mode="normal" in2="BackgroundImageFix" result="effect1_dropShadow_192_1177"/>
<feBlend mode="normal" in="SourceGraphic" in2="effect1_dropShadow_192_1177" result="shape"/>
<feColorMatrix in="SourceAlpha" type="matrix" values="0 0 0 0 0 0 0 0 0 0 0 0 0 0 0 0 0 0 127 0" result="hardAlpha"/>
<feOffset/>
<feGaussianBlur stdDeviation="1.5"/>
<feComposite in2="hardAlpha" operator="arithmetic" k2="-1" k3="1"/>
<feColorMatrix type="matrix" values="0 0 0 0 0.231373 0 0 0 0 0.407843 0 0 0 0 1 0 0 0 0.38 0"/>
<feBlend mode="normal" in2="shape" result="effect2_innerShadow_192_1177"/>
</filter>
<clipPath id="bgblur_1_192_1177_clip_path" transform="translate(0 -10)"><path fill-rule="evenodd" clip-rule="evenodd" d="M7.25 14C5.45507 14 4 15.4551 4 17.25V19.25C4 21.0449 5.45507 22.5 7.25 22.5H9.25C11.0449 22.5 12.5 21.0449 12.5 19.25V17.25C12.5 15.4551 11.0449 14 9.25 14H7.25Z"/>
</clipPath><filter id="filter2_di_192_1177" x="0" y="0" width="16.5" height="16.5" filterUnits="userSpaceOnUse" color-interpolation-filters="sRGB">
<feFlood flood-opacity="0" result="BackgroundImageFix"/>
<feColorMatrix in="SourceAlpha" type="matrix" values="0 0 0 0 0 0 0 0 0 0 0 0 0 0 0 0 0 0 127 0" result="hardAlpha"/>
<feOffset/>
<feGaussianBlur stdDeviation="2"/>
<feComposite in2="hardAlpha" operator="out"/>
<feColorMatrix type="matrix" values="0 0 0 0 0.231373 0 0 0 0 0.407843 0 0 0 0 1 0 0 0 0.1 0"/>
<feBlend mode="normal" in2="BackgroundImageFix" result="effect1_dropShadow_192_1177"/>
<feBlend mode="normal" in="SourceGraphic" in2="effect1_dropShadow_192_1177" result="shape"/>
<feColorMatrix in="SourceAlpha" type="matrix" values="0 0 0 0 0 0 0 0 0 0 0 0 0 0 0 0 0 0 127 0" result="hardAlpha"/>
<feOffset/>
<feGaussianBlur stdDeviation="1.5"/>
<feComposite in2="hardAlpha" operator="arithmetic" k2="-1" k3="1"/>
<feColorMatrix type="matrix" values="0 0 0 0 0.231373 0 0 0 0 0.407843 0 0 0 0 1 0 0 0 0.38 0"/>
<feBlend mode="normal" in2="shape" result="effect2_innerShadow_192_1177"/>
</filter>
<clipPath id="bgblur_2_192_1177_clip_path" transform="translate(0 0)"><path fill-rule="evenodd" clip-rule="evenodd" d="M7.25 4C5.45507 4 4 5.45507 4 7.25V9.25C4 11.0449 5.45507 12.5 7.25 12.5H9.25C11.0449 12.5 12.5 11.0449 12.5 9.25V7.25C12.5 5.45507 11.0449 4 9.25 4H7.25Z"/>
</clipPath><linearGradient id="paint0_linear_192_1177" x1="11.2375" y1="10.6" x2="26.9625" y2="24.625" gradientUnits="userSpaceOnUse">
<stop stop-color="#344EA6" stop-opacity="0.26"/>
<stop offset="0.505208" stop-color="#587EFF" stop-opacity="0.12"/>
<stop offset="1" stop-color="#829EFF" stop-opacity="0.04"/>
</linearGradient>
<linearGradient id="paint1_linear_192_1177" x1="14.2125" y1="15.275" x2="21.65" y2="21.65" gradientUnits="userSpaceOnUse">
<stop stop-color="white" stop-opacity="0.15"/>
<stop offset="1" stop-color="white" stop-opacity="0.44"/>
</linearGradient>
<linearGradient id="paint2_linear_192_1177" x1="1.2375" y1="10.6" x2="16.9625" y2="24.625" gradientUnits="userSpaceOnUse">
<stop stop-color="#344EA6" stop-opacity="0.26"/>
<stop offset="0.505208" stop-color="#587EFF" stop-opacity="0.12"/>
<stop offset="1" stop-color="#829EFF" stop-opacity="0.04"/>
</linearGradient>
<linearGradient id="paint3_linear_192_1177" x1="4.2125" y1="15.275" x2="11.65" y2="21.65" gradientUnits="userSpaceOnUse">
<stop stop-color="white" stop-opacity="0.15"/>
<stop offset="1" stop-color="white" stop-opacity="0.44"/>
</linearGradient>
<linearGradient id="paint4_linear_192_1177" x1="1.2375" y1="0.6" x2="16.9625" y2="14.625" gradientUnits="userSpaceOnUse">
<stop stop-color="#344EA6" stop-opacity="0.26"/>
<stop offset="0.505208" stop-color="#587EFF" stop-opacity="0.12"/>
<stop offset="1" stop-color="#829EFF" stop-opacity="0.04"/>
</linearGradient>
<linearGradient id="paint5_linear_192_1177" x1="4.2125" y1="5.275" x2="11.65" y2="11.65" gradientUnits="userSpaceOnUse">
<stop stop-color="white" stop-opacity="0.15"/>
<stop offset="1" stop-color="white" stop-opacity="0.44"/>
</linearGradient>
</defs>
</svg>
