<svg width="39" height="42" viewBox="0 0 39 42" fill="none" xmlns="http://www.w3.org/2000/svg">
<foreignObject x="0.00032568" y="13.8138" width="38.9583" height="28.1927"><div xmlns="http://www.w3.org/1999/xhtml" style="backdrop-filter:blur(1.42px);clip-path:url(#bgblur_0_266_3714_clip_path);height:100%;width:100%"></div></foreignObject><g filter="url(#filter0_di_266_3714)" data-figma-bg-blur-radius="2.83333">
<path d="M23.1909 20.4524C20.8844 19.1565 18.0746 19.1565 15.7681 20.4524L7.21621 25.2571C5.15059 26.4176 5.15058 29.4032 7.2162 30.5637L15.7681 35.3684C18.0746 36.6643 20.8844 36.6643 23.1909 35.3684L31.7428 30.5637C33.8084 29.4032 33.8084 26.4176 31.7428 25.2571L23.1909 20.4524Z" fill="url(#paint0_linear_266_3714)" shape-rendering="crispEdges"/>
<path d="M15.8545 20.6064C18.1072 19.3408 20.8518 19.3408 23.1045 20.6064L31.6562 25.4111C33.6013 26.5039 33.6012 29.3162 31.6562 30.4092L23.1045 35.2139C20.8518 36.4795 18.1072 36.4795 15.8545 35.2139L7.30273 30.4092C5.3578 29.3162 5.35767 26.5039 7.30273 25.4111L15.8545 20.6064Z" stroke="url(#paint1_linear_266_3714)" stroke-opacity="0.7" stroke-width="0.354167" shape-rendering="crispEdges"/>
</g>
<g filter="url(#filter1_d_266_3714)">
<path d="M23.1909 13.3704C20.8844 12.0745 18.0746 12.0745 15.7681 13.3704L7.21621 18.1751C5.15059 19.3356 5.15058 22.3212 7.2162 23.4817L15.7681 28.2864C18.0746 29.5823 20.8844 29.5823 23.1909 28.2864L31.7428 23.4817C33.8084 22.3212 33.8084 19.3356 31.7428 18.1751L23.1909 13.3704Z" fill="#3B68FF"/>
</g>
<foreignObject x="0.00032568" y="0.00130224" width="38.9583" height="28.1927"><div xmlns="http://www.w3.org/1999/xhtml" style="backdrop-filter:blur(1.42px);clip-path:url(#bgblur_1_266_3714_clip_path);height:100%;width:100%"></div></foreignObject><g filter="url(#filter2_di_266_3714)" data-figma-bg-blur-radius="2.83333">
<path d="M23.1909 6.63989C20.8844 5.344 18.0746 5.34399 15.7681 6.63989L7.21621 11.4446C5.15059 12.6051 5.15058 15.5907 7.2162 16.7512L15.7681 21.5559C18.0746 22.8518 20.8844 22.8518 23.1909 21.5559L31.7428 16.7512C33.8084 15.5907 33.8084 12.6051 31.7428 11.4446L23.1909 6.63989Z" fill="url(#paint2_linear_266_3714)" shape-rendering="crispEdges"/>
<path d="M15.8545 6.79395C18.1072 5.52832 20.8518 5.52832 23.1045 6.79395L31.6562 11.5986C33.6013 12.6914 33.6012 15.5037 31.6562 16.5967L23.1045 21.4014C20.8518 22.667 18.1072 22.667 15.8545 21.4014L7.30273 16.5967C5.3578 15.5037 5.35767 12.6914 7.30273 11.5986L15.8545 6.79395Z" stroke="url(#paint3_linear_266_3714)" stroke-opacity="0.7" stroke-width="0.354167" shape-rendering="crispEdges"/>
</g>
<defs>
<filter id="filter0_di_266_3714" x="0.00032568" y="13.8138" width="38.9583" height="28.1927" filterUnits="userSpaceOnUse" color-interpolation-filters="sRGB">
<feFlood flood-opacity="0" result="BackgroundImageFix"/>
<feColorMatrix in="SourceAlpha" type="matrix" values="0 0 0 0 0 0 0 0 0 0 0 0 0 0 0 0 0 0 127 0" result="hardAlpha"/>
<feOffset/>
<feGaussianBlur stdDeviation="2.83333"/>
<feComposite in2="hardAlpha" operator="out"/>
<feColorMatrix type="matrix" values="0 0 0 0 0.231373 0 0 0 0 0.407843 0 0 0 0 1 0 0 0 0.1 0"/>
<feBlend mode="normal" in2="BackgroundImageFix" result="effect1_dropShadow_266_3714"/>
<feBlend mode="normal" in="SourceGraphic" in2="effect1_dropShadow_266_3714" result="shape"/>
<feColorMatrix in="SourceAlpha" type="matrix" values="0 0 0 0 0 0 0 0 0 0 0 0 0 0 0 0 0 0 127 0" result="hardAlpha"/>
<feOffset/>
<feGaussianBlur stdDeviation="2.125"/>
<feComposite in2="hardAlpha" operator="arithmetic" k2="-1" k3="1"/>
<feColorMatrix type="matrix" values="0 0 0 0 0.231373 0 0 0 0 0.407843 0 0 0 0 1 0 0 0 0.38 0"/>
<feBlend mode="normal" in2="shape" result="effect2_innerShadow_266_3714"/>
</filter>
<clipPath id="bgblur_0_266_3714_clip_path" transform="translate(-0.00032568 -13.8138)"><path d="M23.1909 20.4524C20.8844 19.1565 18.0746 19.1565 15.7681 20.4524L7.21621 25.2571C5.15059 26.4176 5.15058 29.4032 7.2162 30.5637L15.7681 35.3684C18.0746 36.6643 20.8844 36.6643 23.1909 35.3684L31.7428 30.5637C33.8084 29.4032 33.8084 26.4176 31.7428 25.2571L23.1909 20.4524Z"/>
</clipPath><filter id="filter1_d_266_3714" x="2.83366" y="9.5651" width="33.2917" height="22.526" filterUnits="userSpaceOnUse" color-interpolation-filters="sRGB">
<feFlood flood-opacity="0" result="BackgroundImageFix"/>
<feColorMatrix in="SourceAlpha" type="matrix" values="0 0 0 0 0 0 0 0 0 0 0 0 0 0 0 0 0 0 127 0" result="hardAlpha"/>
<feOffset/>
<feGaussianBlur stdDeviation="1.41667"/>
<feComposite in2="hardAlpha" operator="out"/>
<feColorMatrix type="matrix" values="0 0 0 0 0.231373 0 0 0 0 0.407843 0 0 0 0 1 0 0 0 0.35 0"/>
<feBlend mode="normal" in2="BackgroundImageFix" result="effect1_dropShadow_266_3714"/>
<feBlend mode="normal" in="SourceGraphic" in2="effect1_dropShadow_266_3714" result="shape"/>
</filter>
<filter id="filter2_di_266_3714" x="0.00032568" y="0.00130224" width="38.9583" height="28.1927" filterUnits="userSpaceOnUse" color-interpolation-filters="sRGB">
<feFlood flood-opacity="0" result="BackgroundImageFix"/>
<feColorMatrix in="SourceAlpha" type="matrix" values="0 0 0 0 0 0 0 0 0 0 0 0 0 0 0 0 0 0 127 0" result="hardAlpha"/>
<feOffset/>
<feGaussianBlur stdDeviation="2.83333"/>
<feComposite in2="hardAlpha" operator="out"/>
<feColorMatrix type="matrix" values="0 0 0 0 0.231373 0 0 0 0 0.407843 0 0 0 0 1 0 0 0 0.1 0"/>
<feBlend mode="normal" in2="BackgroundImageFix" result="effect1_dropShadow_266_3714"/>
<feBlend mode="normal" in="SourceGraphic" in2="effect1_dropShadow_266_3714" result="shape"/>
<feColorMatrix in="SourceAlpha" type="matrix" values="0 0 0 0 0 0 0 0 0 0 0 0 0 0 0 0 0 0 127 0" result="hardAlpha"/>
<feOffset/>
<feGaussianBlur stdDeviation="2.125"/>
<feComposite in2="hardAlpha" operator="arithmetic" k2="-1" k3="1"/>
<feColorMatrix type="matrix" values="0 0 0 0 0.231373 0 0 0 0 0.407843 0 0 0 0 1 0 0 0 0.38 0"/>
<feBlend mode="normal" in2="shape" result="effect2_innerShadow_266_3714"/>
</filter>
<clipPath id="bgblur_1_266_3714_clip_path" transform="translate(-0.00032568 -0.00130224)"><path d="M23.1909 6.63989C20.8844 5.344 18.0746 5.34399 15.7681 6.63989L7.21621 11.4446C5.15059 12.6051 5.15058 15.5907 7.2162 16.7512L15.7681 21.5559C18.0746 22.8518 20.8844 22.8518 23.1909 21.5559L31.7428 16.7512C33.8084 15.5907 33.8084 12.6051 31.7428 11.4446L23.1909 6.63989Z"/>
</clipPath><linearGradient id="paint0_linear_266_3714" x1="-3.31113" y1="12.7365" x2="25.9528" y2="55.5018" gradientUnits="userSpaceOnUse">
<stop stop-color="#344EA6" stop-opacity="0.26"/>
<stop offset="0.505208" stop-color="#587EFF" stop-opacity="0.12"/>
<stop offset="1" stop-color="#829EFF" stop-opacity="0.04"/>
</linearGradient>
<linearGradient id="paint1_linear_266_3714" x1="6.35762" y1="22.0095" x2="20.4642" y2="41.8212" gradientUnits="userSpaceOnUse">
<stop stop-color="white" stop-opacity="0.15"/>
<stop offset="1" stop-color="white" stop-opacity="0.44"/>
</linearGradient>
<linearGradient id="paint2_linear_266_3714" x1="-3.31113" y1="-1.07599" x2="25.9528" y2="41.6893" gradientUnits="userSpaceOnUse">
<stop stop-color="#344EA6" stop-opacity="0.26"/>
<stop offset="0.505208" stop-color="#587EFF" stop-opacity="0.12"/>
<stop offset="1" stop-color="#829EFF" stop-opacity="0.04"/>
</linearGradient>
<linearGradient id="paint3_linear_266_3714" x1="6.35762" y1="8.19695" x2="20.4642" y2="28.0087" gradientUnits="userSpaceOnUse">
<stop stop-color="white" stop-opacity="0.15"/>
<stop offset="1" stop-color="white" stop-opacity="0.44"/>
</linearGradient>
</defs>
</svg>
