<svg width="28" height="30" viewBox="0 0 28 30" fill="none" xmlns="http://www.w3.org/2000/svg">
<foreignObject x="0" y="9.75" width="27.5" height="19.9014"><div xmlns="http://www.w3.org/1999/xhtml" style="backdrop-filter:blur(1px);clip-path:url(#bgblur_0_192_1242_clip_path);height:100%;width:100%"></div></foreignObject><g filter="url(#filter0_di_192_1242)" data-figma-bg-blur-radius="2">
<path d="M16.3698 14.4361C14.7417 13.5213 12.7583 13.5213 11.1302 14.4361L5.09356 17.8276C3.63548 18.6468 3.63548 20.7543 5.09356 21.5735L11.1302 24.965C12.7583 25.8798 14.7417 25.8798 16.3698 24.965L22.4064 21.5735C23.8645 20.7543 23.8645 18.6468 22.4064 17.8276L16.3698 14.4361Z" fill="url(#paint0_linear_192_1242)" shape-rendering="crispEdges"/>
<path d="M11.1914 14.5449C12.7815 13.6516 14.7185 13.6516 16.3086 14.5449L22.3447 17.9365C23.7178 18.7079 23.7178 20.6934 22.3447 21.4648L16.3086 24.8564C14.7185 25.7497 12.7815 25.7497 11.1914 24.8564L5.15527 21.4648C3.78222 20.6934 3.78222 18.7079 5.15527 17.9365L11.1914 14.5449Z" stroke="url(#paint1_linear_192_1242)" stroke-opacity="0.7" stroke-width="0.25" shape-rendering="crispEdges"/>
</g>
<g filter="url(#filter1_d_192_1242)">
<path d="M16.3698 9.43606C14.7417 8.52131 12.7583 8.52131 11.1302 9.43606L5.09356 12.8276C3.63548 13.6468 3.63548 15.7543 5.09356 16.5735L11.1302 19.965C12.7583 20.8798 14.7417 20.8798 16.3698 19.965L22.4064 16.5735C23.8645 15.7543 23.8645 13.6468 22.4064 12.8276L16.3698 9.43606Z" fill="#3B68FF"/>
</g>
<foreignObject x="0" y="0" width="27.5" height="19.9014"><div xmlns="http://www.w3.org/1999/xhtml" style="backdrop-filter:blur(1px);clip-path:url(#bgblur_1_192_1242_clip_path);height:100%;width:100%"></div></foreignObject><g filter="url(#filter2_di_192_1242)" data-figma-bg-blur-radius="2">
<path d="M16.3698 4.68606C14.7417 3.77131 12.7583 3.77131 11.1302 4.68606L5.09356 8.07762C3.63548 8.89682 3.63548 11.0043 5.09356 11.8235L11.1302 15.215C12.7583 16.1298 14.7417 16.1298 16.3698 15.215L22.4064 11.8235C23.8645 11.0043 23.8645 8.89682 22.4064 8.07762L16.3698 4.68606Z" fill="url(#paint2_linear_192_1242)" shape-rendering="crispEdges"/>
<path d="M11.1914 4.79492C12.7815 3.90157 14.7185 3.90158 16.3086 4.79492L22.3447 8.18652C23.7178 8.95795 23.7178 10.9434 22.3447 11.7148L16.3086 15.1064C14.7185 15.9997 12.7815 15.9997 11.1914 15.1064L5.15527 11.7148C3.78222 10.9434 3.78222 8.95795 5.15527 8.18652L11.1914 4.79492Z" stroke="url(#paint3_linear_192_1242)" stroke-opacity="0.7" stroke-width="0.25" shape-rendering="crispEdges"/>
</g>
<defs>
<filter id="filter0_di_192_1242" x="0" y="9.75" width="27.5" height="19.9014" filterUnits="userSpaceOnUse" color-interpolation-filters="sRGB">
<feFlood flood-opacity="0" result="BackgroundImageFix"/>
<feColorMatrix in="SourceAlpha" type="matrix" values="0 0 0 0 0 0 0 0 0 0 0 0 0 0 0 0 0 0 127 0" result="hardAlpha"/>
<feOffset/>
<feGaussianBlur stdDeviation="2"/>
<feComposite in2="hardAlpha" operator="out"/>
<feColorMatrix type="matrix" values="0 0 0 0 0.231373 0 0 0 0 0.407843 0 0 0 0 1 0 0 0 0.1 0"/>
<feBlend mode="normal" in2="BackgroundImageFix" result="effect1_dropShadow_192_1242"/>
<feBlend mode="normal" in="SourceGraphic" in2="effect1_dropShadow_192_1242" result="shape"/>
<feColorMatrix in="SourceAlpha" type="matrix" values="0 0 0 0 0 0 0 0 0 0 0 0 0 0 0 0 0 0 127 0" result="hardAlpha"/>
<feOffset/>
<feGaussianBlur stdDeviation="1.5"/>
<feComposite in2="hardAlpha" operator="arithmetic" k2="-1" k3="1"/>
<feColorMatrix type="matrix" values="0 0 0 0 0.231373 0 0 0 0 0.407843 0 0 0 0 1 0 0 0 0.38 0"/>
<feBlend mode="normal" in2="shape" result="effect2_innerShadow_192_1242"/>
</filter>
<clipPath id="bgblur_0_192_1242_clip_path" transform="translate(0 -9.75)"><path d="M16.3698 14.4361C14.7417 13.5213 12.7583 13.5213 11.1302 14.4361L5.09356 17.8276C3.63548 18.6468 3.63548 20.7543 5.09356 21.5735L11.1302 24.965C12.7583 25.8798 14.7417 25.8798 16.3698 24.965L22.4064 21.5735C23.8645 20.7543 23.8645 18.6468 22.4064 17.8276L16.3698 14.4361Z"/>
</clipPath><filter id="filter1_d_192_1242" x="2" y="6.75" width="23.5" height="15.9014" filterUnits="userSpaceOnUse" color-interpolation-filters="sRGB">
<feFlood flood-opacity="0" result="BackgroundImageFix"/>
<feColorMatrix in="SourceAlpha" type="matrix" values="0 0 0 0 0 0 0 0 0 0 0 0 0 0 0 0 0 0 127 0" result="hardAlpha"/>
<feOffset/>
<feGaussianBlur stdDeviation="1"/>
<feComposite in2="hardAlpha" operator="out"/>
<feColorMatrix type="matrix" values="0 0 0 0 0.231373 0 0 0 0 0.407843 0 0 0 0 1 0 0 0 0.35 0"/>
<feBlend mode="normal" in2="BackgroundImageFix" result="effect1_dropShadow_192_1242"/>
<feBlend mode="normal" in="SourceGraphic" in2="effect1_dropShadow_192_1242" result="shape"/>
</filter>
<filter id="filter2_di_192_1242" x="0" y="0" width="27.5" height="19.9014" filterUnits="userSpaceOnUse" color-interpolation-filters="sRGB">
<feFlood flood-opacity="0" result="BackgroundImageFix"/>
<feColorMatrix in="SourceAlpha" type="matrix" values="0 0 0 0 0 0 0 0 0 0 0 0 0 0 0 0 0 0 127 0" result="hardAlpha"/>
<feOffset/>
<feGaussianBlur stdDeviation="2"/>
<feComposite in2="hardAlpha" operator="out"/>
<feColorMatrix type="matrix" values="0 0 0 0 0.231373 0 0 0 0 0.407843 0 0 0 0 1 0 0 0 0.1 0"/>
<feBlend mode="normal" in2="BackgroundImageFix" result="effect1_dropShadow_192_1242"/>
<feBlend mode="normal" in="SourceGraphic" in2="effect1_dropShadow_192_1242" result="shape"/>
<feColorMatrix in="SourceAlpha" type="matrix" values="0 0 0 0 0 0 0 0 0 0 0 0 0 0 0 0 0 0 127 0" result="hardAlpha"/>
<feOffset/>
<feGaussianBlur stdDeviation="1.5"/>
<feComposite in2="hardAlpha" operator="arithmetic" k2="-1" k3="1"/>
<feColorMatrix type="matrix" values="0 0 0 0 0.231373 0 0 0 0 0.407843 0 0 0 0 1 0 0 0 0.38 0"/>
<feBlend mode="normal" in2="shape" result="effect2_innerShadow_192_1242"/>
</filter>
<clipPath id="bgblur_1_192_1242_clip_path" transform="translate(0 0)"><path d="M16.3698 4.68606C14.7417 3.77131 12.7583 3.77131 11.1302 4.68606L5.09356 8.07762C3.63548 8.89682 3.63548 11.0043 5.09356 11.8235L11.1302 15.215C12.7583 16.1298 14.7417 16.1298 16.3698 15.215L22.4064 11.8235C23.8645 11.0043 23.8645 8.89682 22.4064 8.07762L16.3698 4.68606Z"/>
</clipPath><linearGradient id="paint0_linear_192_1242" x1="-2.3375" y1="8.98956" x2="18.3194" y2="39.1769" gradientUnits="userSpaceOnUse">
<stop stop-color="#344EA6" stop-opacity="0.26"/>
<stop offset="0.505208" stop-color="#587EFF" stop-opacity="0.12"/>
<stop offset="1" stop-color="#829EFF" stop-opacity="0.04"/>
</linearGradient>
<linearGradient id="paint1_linear_192_1242" x1="4.4875" y1="15.5352" x2="14.4451" y2="29.5199" gradientUnits="userSpaceOnUse">
<stop stop-color="white" stop-opacity="0.15"/>
<stop offset="1" stop-color="white" stop-opacity="0.44"/>
</linearGradient>
<linearGradient id="paint2_linear_192_1242" x1="-2.3375" y1="-0.76044" x2="18.3194" y2="29.4269" gradientUnits="userSpaceOnUse">
<stop stop-color="#344EA6" stop-opacity="0.26"/>
<stop offset="0.505208" stop-color="#587EFF" stop-opacity="0.12"/>
<stop offset="1" stop-color="#829EFF" stop-opacity="0.04"/>
</linearGradient>
<linearGradient id="paint3_linear_192_1242" x1="4.4875" y1="5.78516" x2="14.4451" y2="19.7699" gradientUnits="userSpaceOnUse">
<stop stop-color="white" stop-opacity="0.15"/>
<stop offset="1" stop-color="white" stop-opacity="0.44"/>
</linearGradient>
</defs>
</svg>
