<svg width="28" height="26" viewBox="0 0 28 26" fill="none" xmlns="http://www.w3.org/2000/svg">
<path d="M14 10.3333L23.7785 6.25897C23.8605 6.22479 23.8605 6.10855 23.7785 6.07436L19 4.08333L14.7692 2.32051C14.2769 2.11538 13.7231 2.11538 13.2308 2.32051L4.22154 6.07436C4.13949 6.10855 4.13949 6.22479 4.22154 6.25897L9 8.25L14 10.3333Z" fill="#3B68FF"/>
<foreignObject x="10" y="2.2168" width="18" height="23.7832"><div xmlns="http://www.w3.org/1999/xhtml" style="backdrop-filter:blur(1px);clip-path:url(#bgblur_0_192_1201_clip_path);height:100%;width:100%"></div></foreignObject><g filter="url(#filter0_di_192_1201)" data-figma-bg-blur-radius="2">
<path d="M14 22.0003V10.3337L23.8615 6.22468C23.9274 6.19724 24 6.24563 24 6.31699V17.167C24 17.5707 23.7573 17.9348 23.3846 18.0901L14 22.0003Z" fill="url(#paint0_linear_192_1201)" shape-rendering="crispEdges"/>
<path d="M23.875 17.167C23.875 17.5201 23.6628 17.8387 23.3369 17.9746L14.125 21.8125V10.417L23.875 6.35352V17.167Z" stroke="url(#paint1_linear_192_1201)" stroke-opacity="0.7" stroke-width="0.25" stroke-linejoin="round" shape-rendering="crispEdges"/>
</g>
<foreignObject x="0" y="2.21582" width="18" height="23.7832"><div xmlns="http://www.w3.org/1999/xhtml" style="backdrop-filter:blur(1px);clip-path:url(#bgblur_1_192_1201_clip_path);height:100%;width:100%"></div></foreignObject><g filter="url(#filter1_di_192_1201)" data-figma-bg-blur-radius="2">
<path d="M4 6.31602V17.166C4 17.5697 4.24274 17.9338 4.61538 18.0891L14 21.9993V10.3327L4.13846 6.22371C4.07259 6.19626 4 6.24466 4 6.31602Z" fill="url(#paint2_linear_192_1201)" shape-rendering="crispEdges"/>
<path d="M13.875 10.416V21.8115L4.66309 17.9736C4.33722 17.8377 4.125 17.5191 4.125 17.166V6.35254L13.875 10.416Z" stroke="url(#paint3_linear_192_1201)" stroke-opacity="0.7" stroke-width="0.25" stroke-linejoin="round" shape-rendering="crispEdges"/>
</g>
<defs>
<filter id="filter0_di_192_1201" x="10" y="2.2168" width="18" height="23.7832" filterUnits="userSpaceOnUse" color-interpolation-filters="sRGB">
<feFlood flood-opacity="0" result="BackgroundImageFix"/>
<feColorMatrix in="SourceAlpha" type="matrix" values="0 0 0 0 0 0 0 0 0 0 0 0 0 0 0 0 0 0 127 0" result="hardAlpha"/>
<feOffset/>
<feGaussianBlur stdDeviation="2"/>
<feComposite in2="hardAlpha" operator="out"/>
<feColorMatrix type="matrix" values="0 0 0 0 0.231373 0 0 0 0 0.407843 0 0 0 0 1 0 0 0 0.1 0"/>
<feBlend mode="normal" in2="BackgroundImageFix" result="effect1_dropShadow_192_1201"/>
<feBlend mode="normal" in="SourceGraphic" in2="effect1_dropShadow_192_1201" result="shape"/>
<feColorMatrix in="SourceAlpha" type="matrix" values="0 0 0 0 0 0 0 0 0 0 0 0 0 0 0 0 0 0 127 0" result="hardAlpha"/>
<feOffset/>
<feGaussianBlur stdDeviation="1.5"/>
<feComposite in2="hardAlpha" operator="arithmetic" k2="-1" k3="1"/>
<feColorMatrix type="matrix" values="0 0 0 0 0.231373 0 0 0 0 0.407843 0 0 0 0 1 0 0 0 0.38 0"/>
<feBlend mode="normal" in2="shape" result="effect2_innerShadow_192_1201"/>
</filter>
<clipPath id="bgblur_0_192_1201_clip_path" transform="translate(-10 -2.2168)"><path d="M14 22.0003V10.3337L23.8615 6.22468C23.9274 6.19724 24 6.24563 24 6.31699V17.167C24 17.5707 23.7573 17.9348 23.3846 18.0901L14 22.0003Z"/>
</clipPath><filter id="filter1_di_192_1201" x="0" y="2.21582" width="18" height="23.7832" filterUnits="userSpaceOnUse" color-interpolation-filters="sRGB">
<feFlood flood-opacity="0" result="BackgroundImageFix"/>
<feColorMatrix in="SourceAlpha" type="matrix" values="0 0 0 0 0 0 0 0 0 0 0 0 0 0 0 0 0 0 127 0" result="hardAlpha"/>
<feOffset/>
<feGaussianBlur stdDeviation="2"/>
<feComposite in2="hardAlpha" operator="out"/>
<feColorMatrix type="matrix" values="0 0 0 0 0.231373 0 0 0 0 0.407843 0 0 0 0 1 0 0 0 0.1 0"/>
<feBlend mode="normal" in2="BackgroundImageFix" result="effect1_dropShadow_192_1201"/>
<feBlend mode="normal" in="SourceGraphic" in2="effect1_dropShadow_192_1201" result="shape"/>
<feColorMatrix in="SourceAlpha" type="matrix" values="0 0 0 0 0 0 0 0 0 0 0 0 0 0 0 0 0 0 127 0" result="hardAlpha"/>
<feOffset/>
<feGaussianBlur stdDeviation="1.5"/>
<feComposite in2="hardAlpha" operator="arithmetic" k2="-1" k3="1"/>
<feColorMatrix type="matrix" values="0 0 0 0 0.231373 0 0 0 0 0.407843 0 0 0 0 1 0 0 0 0.38 0"/>
<feBlend mode="normal" in2="shape" result="effect2_innerShadow_192_1201"/>
</filter>
<clipPath id="bgblur_1_192_1201_clip_path" transform="translate(0 -2.21582)"><path d="M4 6.31602V17.166C4 17.5697 4.24274 17.9338 4.61538 18.0891L14 21.9993V10.3327L4.13846 6.22371C4.07259 6.19626 4 6.24466 4 6.31602Z"/>
</clipPath><linearGradient id="paint0_linear_192_1201" x1="10.75" y1="-0.166342" x2="35.9652" y2="14.0374" gradientUnits="userSpaceOnUse">
<stop stop-color="#344EA6" stop-opacity="0.26"/>
<stop offset="0.505208" stop-color="#587EFF" stop-opacity="0.12"/>
<stop offset="1" stop-color="#829EFF" stop-opacity="0.04"/>
</linearGradient>
<linearGradient id="paint1_linear_192_1201" x1="14.25" y1="8.54199" x2="25.9885" y2="14.8966" gradientUnits="userSpaceOnUse">
<stop stop-color="white" stop-opacity="0.15"/>
<stop offset="1" stop-color="white" stop-opacity="0.44"/>
</linearGradient>
<linearGradient id="paint2_linear_192_1201" x1="0.75" y1="-0.167319" x2="25.9652" y2="14.0364" gradientUnits="userSpaceOnUse">
<stop stop-color="#344EA6" stop-opacity="0.26"/>
<stop offset="0.505208" stop-color="#587EFF" stop-opacity="0.12"/>
<stop offset="1" stop-color="#829EFF" stop-opacity="0.04"/>
</linearGradient>
<linearGradient id="paint3_linear_192_1201" x1="4.25" y1="8.54102" x2="15.9885" y2="14.8957" gradientUnits="userSpaceOnUse">
<stop stop-color="white" stop-opacity="0.15"/>
<stop offset="1" stop-color="white" stop-opacity="0.44"/>
</linearGradient>
</defs>
</svg>
